#!OML:ASF H:\MichaelJackson\Top Level 1\Subject 1\Session 1\male.ASF
:FULLY-SPECIFIED
:DEGREES
946
root 6.67133 15.6404 26.1133 -173.129 151.624 167.623
lowerback 1.07634 -5.54473 0.580778
upperback -1.89699 -7.24996 7.27924
thorax -1.68398 -3.59583 7.39512
lowerneck -6.89385 -10.0668 -2.83064
upperneck 8.25167 -13.4709 2.65485
head 4.36964 -6.61374 0.538027
rclavicle -7.14631e-014 1.55052e-014
rhumerus -54.0443 5.11699 -77.2619
rradius 71.6142
rwrist 19.3248
rhand -36.5263 -7.83577
rfingers 7.12502
rthumb -9.61758 -397.596
lclavicle -7.14631e-014 1.55052e-014
lhumerus -45.0985 -2.51391 95.8193
lradius 43.2124
lwrist 6.49315
lhand -22.8365 10.0342
lfingers 7.12502
lthumb 3.60098 39.9836
rfemur -6.11207 7.17523 -2.59912
rtibia 21.105
rfoot 24.3154 -14.7041
rtoes -4.41793
lfemur -44.0166 16.9885 1.09652
ltibia 57.7317
lfoot -31.0008 -18.6527
ltoes -12.2835
947
root 6.52943 15.5726 26.1459 -173.138 151.233 167.457
lowerback 0.853959 -5.57944 0.675398
upperback -2.00321 -7.29561 7.37928
thorax -1.66283 -3.61824 7.43102
lowerneck -6.88291 -10.1377 -2.82164
upperneck 8.2729 -13.5649 2.62167
head 4.3743 -6.66119 0.519186
rclavicle -6.39838e-014 9.64106e-015
rhumerus -54.0504 5.63578 -76.9415
rradius 71.3591
rwrist 19.323
rhand -36.3979 -7.81641
rfingers 7.12502
rthumb -9.49372 -397.583
lclavicle -6.39838e-014 9.64106e-015
lhumerus -45.5978 -2.59024 96.0048
lradius 43.8913
lwrist 7.34413
lhand -23.3223 9.93603
lfingers 7.12502
lthumb 3.13186 39.8928
rfemur -4.85514 7.69058 -2.48799
rtibia 19.5492
rfoot 23.7576 -14.4649
rtoes -11.3341
lfemur -44.5344 16.6715 1.90965
ltibia 58.0614
lfoot -31.2847 -18.3336
ltoes -13.534
948
root 6.38383 15.5051 26.1769 -173.172 150.876 167.286
lowerback 0.693869 -5.61472 0.779458
upperback -2.10269 -7.3397 7.46337
thorax -1.6731 -3.63953 7.45143
lowerneck -6.89845 -10.1964 -2.79916
upperneck 8.3268 -13.646 2.60372
head 4.39588 -6.70041 0.501416
rclavicle 5.07398e-014 -3.18055e-014
rhumerus -54.0438 6.10624 -76.6292
rradius 71.0769
rwrist 19.3917
rhand -36.3128 -7.79053
rfingers 7.12502
rthumb -9.41159 -397.56
lclavicle 5.07398e-014 -3.18055e-014
lhumerus -46.1002 -2.66043 96.169
lradius 44.5878
lwrist 8.15394
lhand -23.8409 9.77392
lfingers 7.12502
lthumb 2.63102 39.7374
rfemur -3.6205 8.12515 -2.3207
rtibia 18.043
rfoot 23.4319 -15.2042
rtoes -15.4379
lfemur -45.0358 16.4042 2.72778
ltibia 58.3773
lfoot -31.4976 -18.0173
ltoes -14.7694
949
root 6.23437 15.4381 26.2065 -173.226 150.562 167.131
lowerback 0.596667 -5.64843 0.871269
upperback -2.19015 -7.38015 7.52953
thorax -1.70746 -3.65866 7.46604
lowerneck -6.93211 -10.2435 -2.78483
upperneck 8.39476 -13.7148 2.62324
head 4.4299 -6.73157 0.496279
rclavicle -3.06128e-014 -7.55382e-015
rhumerus -54.0266 6.53094 -76.3252
rradius 70.7777
rwrist 19.5085
rhand -36.2853 -7.77625
rfingers 7.12502
rthumb -9.38508 -397.547
lclavicle -3.06128e-014 -7.55382e-015
lhumerus -46.5895 -2.7082 96.3088
lradius 45.2796
lwrist 8.81904
lhand -24.4017 9.61493
lfingers 7.12502
lthumb 2.08936 39.5844
rfemur -2.42564 8.4848 -2.12778
rtibia 16.5988
rfoot 23.4168 -16.7196
rtoes -17.5345
lfemur -45.5043 16.1812 3.53527
ltibia 58.6672
lfoot -31.6518 -17.6944
ltoes -16.0036
950
root 6.0809 15.3711 26.2347 -173.292 150.307 167.007
lowerback 0.557447 -5.67462 0.934327
upperback -2.26095 -7.40984 7.57449
thorax -1.75752 -3.67212 7.47969
lowerneck -6.96159 -10.2803 -2.7793
upperneck 8.44945 -13.7727 2.68346
head 4.46247 -6.75584 0.507046
rclavicle -6.05796e-014 4.63168e-014
rhumerus -54.0081 6.91148 -76.0345
rradius 70.4829
rwrist 19.629
rhand -36.2958 -7.81361
rfingers 7.12502
rthumb -9.39526 -397.584
lclavicle -6.05796e-014 4.63168e-014
lhumerus -47.0651 -2.73597 96.4218
lradius 45.9587
lwrist 9.27606
lhand -25.0302 9.46837
lfingers 7.12502
lthumb 1.48242 39.443
rfemur -1.29547 8.77343 -1.93909
rtibia 15.2363
rfoot 23.5621 -18.7897
rtoes -18.3481
lfemur -45.9176 16.0039 4.32494
ltibia 58.9165
lfoot -31.7671 -17.3497
ltoes -17.2581
951
root 5.92311 15.3039 26.2615 -173.353 150.142 166.942
lowerback 0.564799 -5.68503 0.938428
upperback -2.30847 -7.41957 7.5943
thorax -1.80777 -3.67529 7.50314
lowerneck -6.972 -10.3075 -2.79441
upperneck 8.46628 -13.8193 2.78886
head 4.48313 -6.77372 0.538781
rclavicle 1.38006e-013 -3.97569e-014
rhumerus -53.9924 7.25413 -75.7618
rradius 70.2151
rwrist 19.7121
rhand -36.3234 -7.94533
rfingers 7.12502
rthumb -9.42182 -397.715
lclavicle 1.38006e-013 -3.97569e-014
lhumerus -47.5205 -2.7384 96.5067
lradius 46.6214
lwrist 9.48404
lhand -25.7373 9.39398
lfingers 7.12502
lthumb 0.799472 39.3722
rfemur -0.266327 8.96759 -1.799
rtibia 13.9929
rfoot 23.7005 -20.9866
rtoes -18.8835
lfemur -46.2498 15.8812 5.07991
ltibia 59.1116
lfoot -31.8594 -16.9697
ltoes -18.5258
952
root 5.761 15.2359 26.2869 -173.399 150.098 166.951
lowerback 0.609035 -5.67018 0.871464
upperback -2.32845 -7.39797 7.58381
thorax -1.84888 -3.66249 7.53612
lowerneck -6.95876 -10.324 -2.81696
upperneck 8.43503 -13.8521 2.91896
head 4.48411 -6.78484 0.58363
rclavicle -2.21893e-014 4.94974e-014
rhumerus -53.9836 7.57564 -75.5216
rradius 69.9876
rwrist 19.715
rhand -36.3577 -8.19054
rfingers 7.12502
rthumb -9.45491 -397.958
lclavicle -2.21893e-014 4.94974e-014
lhumerus -47.9621 -2.71625 96.5578
lradius 47.2798
lwrist 9.46086
lhand -26.5144 9.40032
lfingers 7.12502
lthumb 0.0489562 39.3801
rfemur 0.61425 9.03561 -1.73788
rtibia 12.9321
rfoot 23.8092 -22.6814
rtoes -20.6363
lfemur -46.4737 15.8263 5.79607
ltibia 59.2446
lfoot -31.9398 -16.5458
ltoes -19.8006
